# xmcd
#
# Track frame offsets:
#	150
#	11274
#	25412
#	44669
#	56979
#	69683
#	82593
#	94856
#
# Disc length: 1465 seconds
#
# Revision: 1
# Processed by: cddbd v1.5.2PL0 Copyright (c) Steve Scherf et al.
# Submitted via: audiograbber 1.83.01
#
DISCID=6205b708
DTITLE=Jack the Busch - MischMaSCH unplugged
DYEAR=2013
DGENRE=
TTITLE0=Stell dich
TTITLE1=Helfen
TTITLE2=Du gehst
TTITLE3=Friends
TTITLE4=Impro
TTITLE5=Stadt
TTITLE6=No Lyrics
TTITLE7=Saufen
EXTD=
EXTT0=
EXTT1=
EXTT2=
EXTT3=
EXTT4=
EXTT5=
EXTT6=
EXTT7=
PLAYORDER=
